<svg width="210" height="12" viewBox="0 0 210 12" fill="none" xmlns="http://www.w3.org/2000/svg">
<path d="M2.01872 4.64348C2.01872 4.17685 2.13253 3.75149 2.36015 3.36737C2.58777 2.98326 2.89364 2.6774 3.27775 2.44978C3.66186 2.22215 4.08723 2.10834 4.55385 2.10834C4.95788 2.10834 5.33061 2.19512 5.67204 2.36869C6.01632 2.54225 6.30085 2.77983 6.52562 3.08143C6.7504 3.38018 6.88982 3.71877 6.94388 4.09719H5.91104C5.85414 3.80412 5.69623 3.56512 5.43731 3.38018C5.17839 3.19239 4.8839 3.0985 4.55385 3.0985C4.26932 3.0985 4.01041 3.16821 3.77709 3.30762C3.54378 3.44704 3.35742 3.63341 3.218 3.86672C3.07858 4.10003 3.00887 4.35895 3.00887 4.64348C3.00887 4.928 3.07858 5.18692 3.218 5.42024C3.35742 5.65355 3.54378 5.83991 3.77709 5.97933C4.01041 6.11875 4.26932 6.18846 4.55385 6.18846C4.8839 6.18846 5.16274 6.09599 5.39036 5.91104C5.62083 5.72326 5.76594 5.48283 5.82569 5.18977H6.85852C6.80446 5.56819 6.67215 5.9082 6.4616 6.2098C6.25105 6.50855 5.98075 6.74471 5.6507 6.91827C5.3235 7.09183 4.95788 7.17861 4.55385 7.17861C4.08723 7.17861 3.66186 7.0648 3.27775 6.83718C2.89364 6.60956 2.58777 6.30369 2.36015 5.91958C2.13253 5.53547 2.01872 5.1101 2.01872 4.64348ZM4.51117 9.15038C3.8909 9.15038 3.30762 9.03373 2.76133 8.80041C2.21789 8.5671 1.73846 8.24416 1.32305 7.8316C0.910486 7.41619 0.586125 6.93676 0.349968 6.39332C0.116656 5.84987 0.00142265 5.26659 0.00426794 4.64348C0.00711318 4.02036 0.125192 3.43708 0.358504 2.89364C0.594661 2.35019 0.919022 1.87219 1.33159 1.45962C1.74415 1.04421 2.22215 0.719853 2.7656 0.486541C3.30905 0.253229 3.8909 0.136573 4.51117 0.136573C5.13429 0.136573 5.71757 0.253229 6.26101 0.486541C6.8073 0.719853 7.28531 1.04421 7.69503 1.45962C8.10759 1.87219 8.43053 2.35019 8.66384 2.89364C8.89715 3.43708 9.01523 4.02036 9.01808 4.64348C9.02092 5.26659 8.90569 5.84987 8.67238 6.39332C8.43907 6.93676 8.11613 7.41619 7.70356 7.8316C7.291 8.24416 6.81157 8.5671 6.26528 8.80041C5.71899 9.03373 5.13429 9.15038 4.51117 9.15038ZM4.51117 8.16023C4.99771 8.16023 5.45438 8.06918 5.88117 7.88708C6.30796 7.70499 6.68211 7.45318 7.00363 7.13166C7.32514 6.81015 7.57695 6.43742 7.75905 6.01347C7.94114 5.58668 8.03077 5.13144 8.02792 4.64775C8.02508 4.1612 7.93261 3.70454 7.75051 3.27775C7.56841 2.85096 7.31661 2.47681 6.99509 2.15529C6.67358 1.83377 6.30085 1.58197 5.8769 1.39987C5.45296 1.21777 4.99771 1.12673 4.51117 1.12673C4.02748 1.12673 3.57366 1.21777 3.14971 1.39987C2.72577 1.58197 2.35304 1.8352 2.03152 2.15956C1.71001 2.48107 1.45678 2.85523 1.27183 3.28202C1.08974 3.70596 0.997266 4.1612 0.994421 4.64775C0.991576 5.1286 1.0812 5.58242 1.2633 6.00921C1.4454 6.43315 1.6972 6.80588 2.01872 7.1274C2.34308 7.44891 2.71723 7.70214 3.14118 7.88708C3.56797 8.06918 4.02463 8.16023 4.51117 8.16023ZM14.2964 9.01381V8.24559L17.1815 5.08734C17.5201 4.71745 17.7989 4.39594 18.018 4.12279C18.2371 3.8468 18.3993 3.58788 18.5046 3.34603C18.6127 3.10134 18.6667 2.84527 18.6667 2.57781C18.6667 2.27052 18.5928 2.00449 18.4448 1.77971C18.2997 1.55494 18.1005 1.38138 17.8473 1.25903C17.5941 1.13668 17.3095 1.07551 16.9937 1.07551C16.658 1.07551 16.3649 1.14522 16.1145 1.28464C15.867 1.42121 15.6749 1.61327 15.5384 1.8608C15.4046 2.10834 15.3378 2.39856 15.3378 2.73146H14.3305C14.3305 2.21931 14.4486 1.76976 14.6848 1.3828C14.9209 0.995843 15.2425 0.694245 15.6493 0.478005C16.059 0.261764 16.5186 0.153644 17.0279 0.153644C17.54 0.153644 17.9938 0.261764 18.3893 0.478005C18.7848 0.694245 19.0949 0.985885 19.3197 1.35292C19.5445 1.71996 19.6569 2.12826 19.6569 2.57781C19.6569 2.89933 19.5986 3.21373 19.4819 3.52102C19.3681 3.82546 19.1689 4.16547 18.8844 4.54105C18.6027 4.91378 18.2115 5.36902 17.7107 5.90678L15.7475 8.00658V8.07487H19.8105V9.01381H14.2964ZM24.4241 9.13331C23.7811 9.13331 23.2334 8.95833 22.781 8.60836C22.3286 8.25555 21.9829 7.74482 21.7439 7.07618C21.5049 6.4047 21.3854 5.5938 21.3854 4.64348C21.3854 3.69885 21.5049 2.89221 21.7439 2.22358C21.9857 1.55209 22.3329 1.03995 22.7853 0.687132C23.2405 0.331473 23.7868 0.153644 24.4241 0.153644C25.0615 0.153644 25.6063 0.331473 26.0587 0.687132C26.514 1.03995 26.8611 1.55209 27.1001 2.22358C27.342 2.89221 27.4629 3.69885 27.4629 4.64348C27.4629 5.5938 27.3434 6.4047 27.1044 7.07618C26.8654 7.74482 26.5197 8.25555 26.0673 8.60836C25.6149 8.95833 25.0672 9.13331 24.4241 9.13331ZM24.4241 8.19437C25.0615 8.19437 25.5566 7.88708 25.9094 7.2725C26.2622 6.65793 26.4386 5.78158 26.4386 4.64348C26.4386 3.88664 26.3575 3.24218 26.1953 2.71012C26.036 2.17805 25.8055 1.7726 25.5039 1.49377C25.2052 1.21493 24.8452 1.07551 24.4241 1.07551C23.7925 1.07551 23.2988 1.38707 22.9432 2.01018C22.5875 2.63045 22.4097 3.50822 22.4097 4.64348C22.4097 5.40032 22.4894 6.04335 22.6487 6.57257C22.808 7.10179 23.0371 7.50439 23.3358 7.78039C23.6374 8.05638 24.0002 8.19437 24.4241 8.19437ZM29.0847 9.01381V8.24559L31.9698 5.08734C32.3084 4.71745 32.5872 4.39594 32.8063 4.12279C33.0254 3.8468 33.1876 3.58788 33.2928 3.34603C33.401 3.10134 33.455 2.84527 33.455 2.57781C33.455 2.27052 33.381 2.00449 33.2331 1.77971C33.088 1.55494 32.8888 1.38138 32.6356 1.25903C32.3824 1.13668 32.0978 1.07551 31.782 1.07551C31.4463 1.07551 31.1532 1.14522 30.9028 1.28464C30.6553 1.42121 30.4632 1.61327 30.3266 1.8608C30.1929 2.10834 30.1261 2.39856 30.1261 2.73146H29.1188C29.1188 2.21931 29.2369 1.76976 29.4731 1.3828C29.7092 0.995843 30.0307 0.694245 30.4376 0.478005C30.8473 0.261764 31.3068 0.153644 31.8161 0.153644C32.3283 0.153644 32.7821 0.261764 33.1776 0.478005C33.5731 0.694245 33.8832 0.985885 34.108 1.35292C34.3328 1.71996 34.4452 2.12826 34.4452 2.57781C34.4452 2.89933 34.3868 3.21373 34.2702 3.52102C34.1564 3.82546 33.9572 4.16547 33.6727 4.54105C33.391 4.91378 32.9998 5.36902 32.499 5.90678L30.5358 8.00658V8.07487H34.5988V9.01381H29.0847ZM39.0929 9.13331C38.5921 9.13331 38.1412 9.03373 37.74 8.83456C37.3388 8.63539 37.0173 8.36224 36.7754 8.01512C36.5336 7.668 36.4013 7.2725 36.3785 6.82864H37.4028C37.4427 7.22414 37.6219 7.55134 37.9406 7.81026C38.2621 8.06633 38.6462 8.19437 39.0929 8.19437C39.4514 8.19437 39.7701 8.11044 40.0489 7.94257C40.3306 7.77469 40.5511 7.54423 40.7105 7.25117C40.8726 6.95526 40.9537 6.62094 40.9537 6.24821C40.9537 5.86694 40.8698 5.52693 40.7019 5.22818C40.5369 4.92658 40.3093 4.689 40.0191 4.51544C39.7288 4.34188 39.3974 4.25368 39.0246 4.25083C38.7572 4.24798 38.4826 4.28924 38.2009 4.3746C37.9192 4.45711 37.6874 4.56381 37.5053 4.69469L36.5151 4.57519L37.0443 0.273145H41.5854V1.21208H37.932L37.6248 3.7899H37.676C37.8552 3.64763 38.08 3.52955 38.3503 3.43566C38.6206 3.34177 38.9023 3.29482 39.1953 3.29482C39.7303 3.29482 40.2068 3.42286 40.6251 3.67893C41.0462 3.93216 41.3762 4.27928 41.6152 4.7203C41.8571 5.16132 41.978 5.66493 41.978 6.23114C41.978 6.78881 41.8528 7.28673 41.6024 7.7249C41.3549 8.16023 41.0135 8.50451 40.5781 8.75773C40.1428 9.00812 39.6477 9.13331 39.0929 9.13331ZM47.5658 9.01381H46.4561L49.6656 0.273145H50.7582L53.9676 9.01381H52.858L50.246 1.65595H50.1777L47.5658 9.01381ZM47.9755 5.59949H52.4482V6.53843H47.9755V5.59949ZM56.1997 0.273145V9.01381H55.1925V0.273145H56.1997ZM59.0518 0.273145V9.01381H58.0445V0.273145H59.0518ZM64.4133 9.01381V0.273145H67.3667C68.0496 0.273145 68.6101 0.389801 69.0483 0.623113C69.4864 0.85358 69.8108 1.17083 70.0213 1.57486C70.2319 1.97888 70.3372 2.43839 70.3372 2.95339C70.3372 3.46838 70.2319 3.92505 70.0213 4.32338C69.8108 4.72172 69.4878 5.0347 69.0525 5.26232C68.6172 5.4871 68.0609 5.59949 67.3838 5.59949H64.9937V4.64348H67.3496C67.8163 4.64348 68.1918 4.57519 68.4764 4.43862C68.7637 4.30205 68.9714 4.10857 69.0995 3.85818C69.2303 3.60495 69.2958 3.30336 69.2958 2.95339C69.2958 2.60342 69.2303 2.29755 69.0995 2.03579C68.9686 1.77402 68.7595 1.57201 68.4721 1.42975C68.1847 1.28464 67.8049 1.21208 67.3326 1.21208H65.4718V9.01381H64.4133ZM68.5276 5.08734L70.6786 9.01381H69.4494L67.3326 5.08734H68.5276ZM71.9643 9.01381V2.45831H72.9715V9.01381H71.9643ZM72.4764 1.36573C72.2801 1.36573 72.1108 1.29886 71.9686 1.16514C71.8291 1.03141 71.7594 0.870652 71.7594 0.682864C71.7594 0.495077 71.8291 0.334319 71.9686 0.200591C72.1108 0.0668637 72.2801 0 72.4764 0C72.6728 0 72.8406 0.0668637 72.9801 0.200591C73.1223 0.334319 73.1935 0.495077 73.1935 0.682864C73.1935 0.870652 73.1223 1.03141 72.9801 1.16514C72.8406 1.29886 72.6728 1.36573 72.4764 1.36573ZM77.4624 11.6087C76.9759 11.6087 76.5576 11.5461 76.2077 11.4209C75.8577 11.2986 75.5661 11.1364 75.3327 10.9344C75.1023 10.7352 74.9188 10.5218 74.7822 10.2942L75.5845 9.73082C75.6756 9.85032 75.7908 9.98689 75.9302 10.1405C76.0697 10.297 76.2603 10.4322 76.5021 10.546C76.7468 10.6626 77.0669 10.721 77.4624 10.721C77.9916 10.721 78.4284 10.5929 78.7727 10.3369C79.1169 10.0808 79.2891 9.6796 79.2891 9.13331V7.80172H79.2037C79.1297 7.92123 79.0245 8.06918 78.8879 8.24559C78.7542 8.41915 78.5607 8.57422 78.3075 8.71079C78.0571 8.84452 77.7185 8.91138 77.2917 8.91138C76.7625 8.91138 76.2873 8.78619 75.8662 8.5358C75.448 8.28542 75.1165 7.92123 74.8718 7.44322C74.63 6.96522 74.509 6.38478 74.509 5.70192C74.509 5.03043 74.6271 4.44573 74.8633 3.94781C75.0994 3.44704 75.4281 3.06009 75.8492 2.78694C76.2703 2.51095 76.7568 2.37295 77.3088 2.37295C77.7356 2.37295 78.0742 2.44409 78.3245 2.58635C78.5778 2.72577 78.7712 2.8851 78.905 3.06435C79.0415 3.24076 79.1468 3.38587 79.2208 3.49968H79.3232V2.45831H80.2963V9.2016C80.2963 9.76496 80.1683 10.223 79.9122 10.5759C79.659 10.9315 79.3175 11.1919 78.8879 11.3569C78.4611 11.5248 77.986 11.6087 77.4624 11.6087ZM77.4283 8.00658C77.8323 8.00658 78.1737 7.91411 78.4526 7.72917C78.7314 7.54423 78.9434 7.2782 79.0885 6.93107C79.2336 6.58395 79.3062 6.16854 79.3062 5.68485C79.3062 5.21253 79.235 4.7957 79.0928 4.43435C78.9505 4.073 78.7399 3.7899 78.4611 3.58504C78.1823 3.38018 77.838 3.27775 77.4283 3.27775C77.0015 3.27775 76.6458 3.38587 76.3613 3.60211C76.0796 3.81835 75.8676 4.10857 75.7254 4.47276C75.586 4.83696 75.5163 5.24098 75.5163 5.68485C75.5163 6.14009 75.5874 6.54269 75.7297 6.89266C75.8748 7.23978 76.0882 7.51293 76.3698 7.7121C76.6544 7.90842 77.0072 8.00658 77.4283 8.00658ZM83.1473 5.07027V9.01381H82.14V0.273145H83.1473V3.48261H83.2326C83.3863 3.14402 83.6167 2.87514 83.924 2.67597C84.2342 2.47396 84.6467 2.37295 85.1617 2.37295C85.6084 2.37295 85.9996 2.46258 86.3354 2.64183C86.6711 2.81824 86.9315 3.08996 87.1164 3.457C87.3042 3.82119 87.3981 4.28497 87.3981 4.84834V9.01381H86.3909V4.91662C86.3909 4.39594 86.2557 3.99333 85.9854 3.70881C85.718 3.42143 85.3467 3.27775 84.8715 3.27775C84.5414 3.27775 84.2455 3.34746 83.9838 3.48688C83.7249 3.62629 83.52 3.82973 83.3692 4.09719C83.2212 4.36464 83.1473 4.689 83.1473 5.07027ZM92.0917 2.45831V3.31189H88.6945V2.45831H92.0917ZM89.6846 0.887723H90.6919V7.13593C90.6919 7.42046 90.7331 7.63385 90.8156 7.77612C90.901 7.91554 91.0091 8.00943 91.14 8.0578C91.2737 8.10332 91.4145 8.12609 91.5625 8.12609C91.6735 8.12609 91.7645 8.12039 91.8356 8.10901C91.9068 8.09479 91.9637 8.08341 92.0064 8.07487L92.2112 8.97967C92.1429 9.00527 92.0476 9.03088 91.9253 9.05649C91.8029 9.08494 91.6479 9.09917 91.4601 9.09917C91.1755 9.09917 90.8967 9.03799 90.6236 8.91565C90.3533 8.7933 90.1285 8.60694 89.9492 8.35655C89.7728 8.10617 89.6846 7.79034 89.6846 7.40908V0.887723ZM97.1236 9.01381V0.273145H100.077C100.76 0.273145 101.32 0.389801 101.759 0.623113C102.197 0.85358 102.521 1.17083 102.732 1.57486C102.942 1.97888 103.047 2.43839 103.047 2.95339C103.047 3.46838 102.942 3.92505 102.732 4.32338C102.521 4.72172 102.198 5.0347 101.763 5.26232C101.327 5.4871 100.771 5.59949 100.094 5.59949H97.704V4.64348H100.06C100.527 4.64348 100.902 4.57519 101.187 4.43862C101.474 4.30205 101.682 4.10857 101.81 3.85818C101.941 3.60495 102.006 3.30336 102.006 2.95339C102.006 2.60342 101.941 2.29755 101.81 2.03579C101.679 1.77402 101.47 1.57201 101.182 1.42975C100.895 1.28464 100.515 1.21208 100.043 1.21208H98.182V9.01381H97.1236ZM101.238 5.08734L103.389 9.01381H102.16L100.043 5.08734H101.238ZM107.353 9.15038C106.721 9.15038 106.176 9.01096 105.718 8.73213C105.263 8.45045 104.911 8.0578 104.664 7.55419C104.419 7.04773 104.297 6.45876 104.297 5.78728C104.297 5.11579 104.419 4.52398 104.664 4.01183C104.911 3.49683 105.256 3.09565 105.697 2.80828C106.141 2.51806 106.658 2.37295 107.25 2.37295C107.592 2.37295 107.929 2.42986 108.262 2.54367C108.595 2.65748 108.898 2.84242 109.171 3.0985C109.444 3.35173 109.662 3.68747 109.824 4.10572C109.986 4.52398 110.067 5.03897 110.067 5.6507V6.07749H105.014V5.20684H109.043C109.043 4.83696 108.969 4.5069 108.821 4.21669C108.676 3.92647 108.468 3.69743 108.198 3.52955C107.93 3.36168 107.614 3.27775 107.25 3.27775C106.849 3.27775 106.502 3.37733 106.209 3.5765C105.919 3.77283 105.695 4.0289 105.539 4.34472C105.382 4.66055 105.304 4.99914 105.304 5.36048V5.94092C105.304 6.436 105.389 6.85567 105.56 7.19995C105.734 7.54138 105.974 7.80172 106.281 7.98098C106.589 8.15738 106.946 8.24559 107.353 8.24559C107.617 8.24559 107.856 8.2086 108.07 8.13462C108.286 8.0578 108.472 7.94399 108.629 7.79319C108.785 7.63954 108.906 7.44891 108.992 7.22129L109.965 7.49444C109.862 7.82449 109.69 8.1147 109.448 8.36509C109.206 8.61263 108.908 8.8061 108.552 8.94552C108.196 9.0821 107.797 9.15038 107.353 9.15038ZM116.243 3.92647L115.338 4.18254C115.281 4.03174 115.197 3.88521 115.086 3.74295C114.978 3.59784 114.83 3.47834 114.642 3.38445C114.454 3.29055 114.214 3.24361 113.921 3.24361C113.52 3.24361 113.185 3.33608 112.918 3.52102C112.653 3.70312 112.521 3.93501 112.521 4.21669C112.521 4.46707 112.612 4.66482 112.794 4.80993C112.976 4.95503 113.261 5.07596 113.648 5.1727L114.621 5.4117C115.207 5.55396 115.644 5.77163 115.931 6.06469C116.219 6.35491 116.362 6.72906 116.362 7.18715C116.362 7.56272 116.254 7.89846 116.038 8.19437C115.824 8.49028 115.526 8.72359 115.142 8.89431C114.757 9.06502 114.311 9.15038 113.801 9.15038C113.133 9.15038 112.579 9.00527 112.141 8.71506C111.703 8.42484 111.426 8.00089 111.309 7.44322L112.265 7.20422C112.356 7.55703 112.528 7.82164 112.781 7.99805C113.038 8.17445 113.372 8.26266 113.784 8.26266C114.254 8.26266 114.627 8.16307 114.903 7.96391C115.181 7.76189 115.321 7.52004 115.321 7.23836C115.321 7.01074 115.241 6.82011 115.082 6.66646C114.923 6.50997 114.678 6.39332 114.348 6.31649L113.255 6.06042C112.655 5.91816 112.214 5.69765 111.932 5.3989C111.653 5.0973 111.514 4.7203 111.514 4.2679C111.514 3.89802 111.618 3.57081 111.825 3.28628C112.036 3.00176 112.322 2.7784 112.683 2.61622C113.047 2.45404 113.46 2.37295 113.921 2.37295C114.57 2.37295 115.079 2.51522 115.449 2.79974C115.822 3.08427 116.086 3.45985 116.243 3.92647ZM120.627 9.15038C119.995 9.15038 119.45 9.01096 118.992 8.73213C118.537 8.45045 118.186 8.0578 117.938 7.55419C117.693 7.04773 117.571 6.45876 117.571 5.78728C117.571 5.11579 117.693 4.52398 117.938 4.01183C118.186 3.49683 118.53 3.09565 118.971 2.80828C119.415 2.51806 119.933 2.37295 120.524 2.37295C120.866 2.37295 121.203 2.42986 121.536 2.54367C121.869 2.65748 122.172 2.84242 122.445 3.0985C122.718 3.35173 122.936 3.68747 123.098 4.10572C123.26 4.52398 123.341 5.03897 123.341 5.6507V6.07749H118.288V5.20684H122.317C122.317 4.83696 122.243 4.5069 122.095 4.21669C121.95 3.92647 121.742 3.69743 121.472 3.52955C121.205 3.36168 120.889 3.27775 120.524 3.27775C120.123 3.27775 119.776 3.37733 119.483 3.5765C119.193 3.77283 118.97 4.0289 118.813 4.34472C118.657 4.66055 118.578 4.99914 118.578 5.36048V5.94092C118.578 6.436 118.664 6.85567 118.834 7.19995C119.008 7.54138 119.248 7.80172 119.556 7.98098C119.863 8.15738 120.22 8.24559 120.627 8.24559C120.892 8.24559 121.131 8.2086 121.344 8.13462C121.56 8.0578 121.747 7.94399 121.903 7.79319C122.06 7.63954 122.18 7.44891 122.266 7.22129L123.239 7.49444C123.136 7.82449 122.964 8.1147 122.722 8.36509C122.481 8.61263 122.182 8.8061 121.826 8.94552C121.471 9.0821 121.071 9.15038 120.627 9.15038ZM124.873 9.01381V2.45831H125.847V3.44846H125.915C126.034 3.1241 126.251 2.86092 126.564 2.6589C126.877 2.45689 127.229 2.35588 127.622 2.35588C127.696 2.35588 127.788 2.3573 127.899 2.36015C128.01 2.36299 128.094 2.36726 128.151 2.37295V3.39725C128.117 3.38871 128.039 3.37591 127.916 3.35884C127.797 3.33892 127.67 3.32896 127.537 3.32896C127.218 3.32896 126.933 3.39583 126.683 3.52955C126.436 3.66044 126.239 3.84253 126.094 4.07585C125.952 4.30631 125.881 4.5695 125.881 4.86541V9.01381H124.873ZM134.905 2.45831L132.481 9.01381H131.457L129.033 2.45831H130.125L131.935 7.68222H132.003L133.813 2.45831H134.905ZM138.748 9.15038C138.117 9.15038 137.572 9.01096 137.114 8.73213C136.659 8.45045 136.307 8.0578 136.06 7.55419C135.815 7.04773 135.693 6.45876 135.693 5.78728C135.693 5.11579 135.815 4.52398 136.06 4.01183C136.307 3.49683 136.651 3.09565 137.092 2.80828C137.536 2.51806 138.054 2.37295 138.646 2.37295C138.987 2.37295 139.325 2.42986 139.657 2.54367C139.99 2.65748 140.293 2.84242 140.567 3.0985C140.84 3.35173 141.057 3.68747 141.22 4.10572C141.382 4.52398 141.463 5.03897 141.463 5.6507V6.07749H136.41V5.20684H140.439C140.439 4.83696 140.365 4.5069 140.217 4.21669C140.071 3.92647 139.864 3.69743 139.593 3.52955C139.326 3.36168 139.01 3.27775 138.646 3.27775C138.245 3.27775 137.898 3.37733 137.605 3.5765C137.314 3.77283 137.091 4.0289 136.935 4.34472C136.778 4.66055 136.7 4.99914 136.7 5.36048V5.94092C136.7 6.436 136.785 6.85567 136.956 7.19995C137.129 7.54138 137.37 7.80172 137.677 7.98098C137.984 8.15738 138.342 8.24559 138.748 8.24559C139.013 8.24559 139.252 8.2086 139.465 8.13462C139.682 8.0578 139.868 7.94399 140.025 7.79319C140.181 7.63954 140.302 7.44891 140.387 7.22129L141.36 7.49444C141.258 7.82449 141.086 8.1147 140.844 8.36509C140.602 8.61263 140.303 8.8061 139.948 8.94552C139.592 9.0821 139.192 9.15038 138.748 9.15038ZM145.47 9.15038C144.924 9.15038 144.442 9.01239 144.024 8.7364C143.605 8.45756 143.278 8.06491 143.042 7.55845C142.806 7.04915 142.688 6.44738 142.688 5.75313C142.688 5.06458 142.806 4.46707 143.042 3.96061C143.278 3.45416 143.607 3.06293 144.028 2.78694C144.449 2.51095 144.935 2.37295 145.487 2.37295C145.914 2.37295 146.251 2.44409 146.499 2.58635C146.749 2.72577 146.94 2.8851 147.071 3.06435C147.205 3.24076 147.308 3.38587 147.382 3.49968H147.468V0.273145H148.475V9.01381H147.502V8.00658H147.382C147.308 8.12609 147.203 8.27688 147.067 8.45898C146.93 8.63823 146.735 8.79899 146.482 8.94125C146.229 9.08067 145.891 9.15038 145.47 9.15038ZM145.607 8.24559C146.011 8.24559 146.352 8.14031 146.631 7.92976C146.91 7.71637 147.122 7.42188 147.267 7.04631C147.412 6.66789 147.485 6.23114 147.485 5.73606C147.485 5.24667 147.414 4.81846 147.271 4.45142C147.129 4.08154 146.919 3.79416 146.64 3.58931C146.361 3.3816 146.017 3.27775 145.607 3.27775C145.18 3.27775 144.824 3.38729 144.54 3.60638C144.258 3.82262 144.046 4.1171 143.904 4.48983C143.765 4.85972 143.695 5.27513 143.695 5.73606C143.695 6.20268 143.766 6.62663 143.908 7.00789C144.053 7.38632 144.267 7.68791 144.549 7.91269C144.833 8.13462 145.186 8.24559 145.607 8.24559ZM153.976 9.01381V0.273145H154.984V3.49968H155.069C155.143 3.38587 155.245 3.24076 155.376 3.06435C155.51 2.8851 155.701 2.72577 155.948 2.58635C156.198 2.44409 156.537 2.37295 156.964 2.37295C157.516 2.37295 158.002 2.51095 158.423 2.78694C158.845 3.06293 159.173 3.45416 159.409 3.96061C159.645 4.46707 159.764 5.06458 159.764 5.75313C159.764 6.44738 159.645 7.04915 159.409 7.55845C159.173 8.06491 158.846 8.45756 158.428 8.7364C158.009 9.01239 157.527 9.15038 156.981 9.15038C156.56 9.15038 156.223 9.08067 155.969 8.94125C155.716 8.79899 155.521 8.63823 155.385 8.45898C155.248 8.27688 155.143 8.12609 155.069 8.00658H154.949V9.01381H153.976ZM154.966 5.73606C154.966 6.23114 155.039 6.66789 155.184 7.04631C155.329 7.42188 155.541 7.71637 155.82 7.92976C156.099 8.14031 156.44 8.24559 156.844 8.24559C157.265 8.24559 157.617 8.13462 157.899 7.91269C158.183 7.68791 158.396 7.38632 158.539 7.00789C158.684 6.62663 158.756 6.20268 158.756 5.73606C158.756 5.27513 158.685 4.85972 158.543 4.48983C158.404 4.1171 158.192 3.82262 157.907 3.60638C157.625 3.38729 157.271 3.27775 156.844 3.27775C156.435 3.27775 156.09 3.3816 155.811 3.58931C155.533 3.79416 155.322 4.08154 155.18 4.45142C155.038 4.81846 154.966 5.24667 154.966 5.73606ZM161.718 11.4721C161.548 11.4721 161.395 11.4579 161.262 11.4294C161.128 11.4038 161.035 11.3782 160.984 11.3526L161.24 10.4649C161.485 10.5275 161.701 10.5503 161.889 10.5332C162.077 10.5161 162.243 10.4322 162.388 10.2814C162.536 10.1334 162.671 9.893 162.794 9.5601L162.982 9.04795L160.557 2.45831H161.65L163.46 7.68222H163.528L165.337 2.45831H166.43L163.647 9.96982C163.522 10.3084 163.367 10.5887 163.182 10.8106C162.997 11.0354 162.782 11.2018 162.538 11.3099C162.296 11.4181 162.023 11.4721 161.718 11.4721Z" fill="black"/>
<path d="M171.635 0.273145L174.23 7.63101H174.332L176.927 0.273145H178.037L174.827 9.01381H173.735L170.525 0.273145H171.635ZM179.398 9.01381V0.273145H184.673V1.21208H180.456V4.16547H184.4V5.10441H180.456V8.07487H184.741V9.01381H179.398ZM191.361 2.45831C191.31 2.02583 191.102 1.69009 190.738 1.45109C190.374 1.21208 189.927 1.09258 189.398 1.09258C189.011 1.09258 188.672 1.15518 188.382 1.28037C188.095 1.40556 187.87 1.5777 187.708 1.79679C187.548 2.01587 187.469 2.26483 187.469 2.54367C187.469 2.77698 187.524 2.97757 187.635 3.14544C187.749 3.31047 187.894 3.44846 188.07 3.55943C188.247 3.66755 188.432 3.75718 188.625 3.82831C188.819 3.89659 188.997 3.95208 189.159 3.99476L190.046 4.23376C190.274 4.29351 190.527 4.37602 190.806 4.4813C191.088 4.58657 191.357 4.73026 191.613 4.91236C191.872 5.09161 192.085 5.32207 192.253 5.60376C192.421 5.88544 192.505 6.23114 192.505 6.64086C192.505 7.11317 192.381 7.53996 192.133 7.92123C191.889 8.30249 191.53 8.60551 191.058 8.83029C190.588 9.05507 190.018 9.16745 189.347 9.16745C188.721 9.16745 188.179 9.06645 187.72 8.86443C187.265 8.66242 186.907 8.38074 186.645 8.01939C186.386 7.65804 186.24 7.23836 186.205 6.76036H187.298C187.326 7.09041 187.437 7.36355 187.631 7.57979C187.827 7.79319 188.075 7.95252 188.373 8.0578C188.675 8.16023 188.999 8.21144 189.347 8.21144C189.751 8.21144 190.113 8.146 190.435 8.01512C190.756 7.88139 191.011 7.69645 191.199 7.46029C191.387 7.22129 191.48 6.94245 191.48 6.62378C191.48 6.33357 191.399 6.09741 191.237 5.91531C191.075 5.73321 190.862 5.58526 190.597 5.47145C190.332 5.35764 190.046 5.25806 189.739 5.1727L188.664 4.86541C187.981 4.66908 187.44 4.38883 187.042 4.02463C186.644 3.66044 186.444 3.18385 186.444 2.59488C186.444 2.1055 186.577 1.67871 186.841 1.31451C187.109 0.947474 187.467 0.662947 187.917 0.460933C188.369 0.256074 188.874 0.153644 189.432 0.153644C189.995 0.153644 190.496 0.254651 190.934 0.456665C191.372 0.655834 191.719 0.928979 191.976 1.2761C192.234 1.62323 192.371 2.01729 192.385 2.45831H191.361ZM194.245 9.01381V0.273145H197.198C197.884 0.273145 198.445 0.396915 198.88 0.644453C199.318 0.889146 199.642 1.22062 199.853 1.63887C200.064 2.05713 200.169 2.52375 200.169 3.03875C200.169 3.55374 200.064 4.02179 199.853 4.44289C199.645 4.86399 199.324 5.19973 198.889 5.45011C198.453 5.69765 197.896 5.82142 197.215 5.82142H195.099V4.88248H197.181C197.651 4.88248 198.028 4.80139 198.312 4.63921C198.597 4.47703 198.803 4.25794 198.931 3.98195C199.062 3.70312 199.128 3.38871 199.128 3.03875C199.128 2.68878 199.062 2.3758 198.931 2.09981C198.803 1.82382 198.595 1.60758 198.308 1.45109C198.021 1.29175 197.639 1.21208 197.164 1.21208H195.303V9.01381H194.245ZM201.874 9.01381V0.273145H202.932V8.07487H206.995V9.01381H201.874ZM209.232 9.0821C209.021 9.0821 208.841 9.0067 208.69 8.8559C208.539 8.7051 208.464 8.52442 208.464 8.31387C208.464 8.10332 208.539 7.92265 208.69 7.77185C208.841 7.62105 209.021 7.54565 209.232 7.54565C209.442 7.54565 209.623 7.62105 209.774 7.77185C209.925 7.92265 210 8.10332 210 8.31387C210 8.45329 209.964 8.58133 209.893 8.69798C209.825 8.81464 209.733 8.90853 209.616 8.97967C209.502 9.04795 209.374 9.0821 209.232 9.0821Z" fill="url(#paint0_linear_1_407)"/>
<defs>
<linearGradient id="paint0_linear_1_407" x1="105.415" y1="-2.00307" x2="105.387" y2="12.0193" gradientUnits="userSpaceOnUse">
<stop/>
<stop offset="1"/>
</linearGradient>
</defs>
</svg>
