<svg width="40" height="40" viewBox="0 0 40 40" fill="none" xmlns="http://www.w3.org/2000/svg">
<rect width="40" height="40" rx="20" fill="white"/>
<g clip-path="url(#clip0_1_170)">
<path d="M22.843 21.3546C22.9295 21.297 23.0291 21.2619 23.1326 21.2525C23.2362 21.2431 23.3404 21.2597 23.4359 21.3007L27.1203 22.9515C27.2445 23.0046 27.3481 23.0964 27.4157 23.2133C27.4833 23.3302 27.5112 23.4658 27.4953 23.5999C27.3739 24.507 26.9273 25.3391 26.2383 25.9415C25.5494 26.5439 24.6652 26.8756 23.75 26.8749C20.9321 26.8749 18.2296 25.7555 16.237 23.7629C14.2444 21.7704 13.125 19.0678 13.125 16.2499C13.1243 15.3348 13.456 14.4505 14.0584 13.7616C14.6608 13.0727 15.4929 12.626 16.4 12.5046C16.5341 12.4887 16.6697 12.5166 16.7866 12.5842C16.9035 12.6518 16.9954 12.7554 17.0484 12.8796L18.6992 16.5671C18.7398 16.6618 18.7563 16.7651 18.7473 16.8677C18.7383 16.9704 18.7041 17.0692 18.6477 17.1554L16.9781 19.1405C16.9189 19.2299 16.8839 19.3331 16.8765 19.4401C16.8691 19.547 16.8896 19.654 16.9359 19.7507C17.582 21.0734 18.9492 22.4241 20.2758 23.064C20.373 23.1101 20.4805 23.1302 20.5878 23.1221C20.695 23.114 20.7983 23.0781 20.8875 23.0179L22.843 21.3546Z" fill="#080800"/>
</g>
<defs>
<clipPath id="clip0_1_170">
<rect width="20" height="20" fill="white" transform="translate(10 10)"/>
</clipPath>
</defs>
</svg>
