<svg width="20" height="20" viewBox="0 0 20 20" fill="none" xmlns="http://www.w3.org/2000/svg">
<g clip-path="url(#clip0_1_230)">
<path d="M16.707 9.80151L7.95703 19.1765C7.8643 19.2755 7.74191 19.3416 7.60831 19.3649C7.47472 19.3882 7.33717 19.3674 7.21643 19.3056C7.09568 19.2439 6.9983 19.1446 6.93896 19.0226C6.87963 18.9007 6.86156 18.7627 6.8875 18.6296L8.75005 12.0833L3.53047 11.2101C3.43377 11.1739 3.34754 11.1144 3.27948 11.0367C3.21143 10.9591 3.16365 10.8658 3.14044 10.7653C3.11723 10.6647 3.11929 10.5599 3.14645 10.4603C3.17362 10.3607 3.22503 10.2694 3.29609 10.1945L12.0461 0.819477C12.1388 0.72052 12.2612 0.654407 12.3948 0.631115C12.5284 0.607823 12.666 0.628614 12.7867 0.690353C12.9074 0.752091 13.0048 0.851426 13.0642 0.973369C13.1235 1.09531 13.1416 1.23324 13.1156 1.36635L11.6667 8.33326L16.4695 8.78979C16.5655 8.8262 16.651 8.88569 16.7186 8.96301C16.7861 9.04033 16.8336 9.13309 16.8567 9.2331C16.8799 9.33311 16.8781 9.43728 16.8514 9.53642C16.8248 9.63555 16.7741 9.7266 16.7039 9.80151H16.707Z" fill="url(#paint0_linear_1_230)"/>
</g>
<defs>
<linearGradient id="paint0_linear_1_230" x1="10.014" y1="0.621826" x2="9.24226" y2="19.3436" gradientUnits="userSpaceOnUse">
<stop stop-color="#FEDD00"/>
<stop offset="1" stop-color="#FEDD00"/>
</linearGradient>
<clipPath id="clip0_1_230">
<rect width="20" height="20" fill="white"/>
</clipPath>
</defs>
</svg>
