<svg width="132" height="24" viewBox="0 0 132 24" fill="none" xmlns="http://www.w3.org/2000/svg">
<g clip-path="url(#clip0_1_359)">
<path d="M21.75 12.0001C21.747 14.383 20.8727 16.6826 19.2918 18.4657C17.7109 20.2488 15.5326 21.3922 13.1672 21.6807C13.1145 21.6867 13.0612 21.6814 13.0107 21.6653C12.9602 21.6491 12.9137 21.6224 12.8743 21.587C12.8349 21.5516 12.8034 21.5082 12.782 21.4597C12.7606 21.4112 12.7497 21.3587 12.75 21.3057V14.2501H15C15.1028 14.2503 15.2046 14.2294 15.299 14.1886C15.3934 14.1479 15.4784 14.0882 15.5487 14.0132C15.6191 13.9382 15.6732 13.8495 15.7078 13.7527C15.7425 13.6559 15.7568 13.553 15.75 13.4504C15.7335 13.2576 15.6445 13.0781 15.501 12.9482C15.3575 12.8183 15.1701 12.7475 14.9766 12.7501H12.75V10.5001C12.75 10.1023 12.9081 9.72074 13.1894 9.43944C13.4707 9.15813 13.8522 9.0001 14.25 9.0001H15.75C15.8528 9.00032 15.9546 8.97941 16.049 8.93865C16.1434 8.89789 16.2284 8.83816 16.2987 8.76316C16.3691 8.68817 16.4232 8.59951 16.4578 8.5027C16.4925 8.4059 16.5068 8.303 16.5 8.20041C16.4834 8.00722 16.3942 7.82752 16.2503 7.69755C16.1064 7.56757 15.9186 7.49701 15.7247 7.5001H14.25C13.4544 7.5001 12.6913 7.81617 12.1287 8.37878C11.5661 8.94139 11.25 9.70445 11.25 10.5001V12.7501H9.00002C8.8972 12.7499 8.79544 12.7708 8.70105 12.8115C8.60666 12.8523 8.52165 12.912 8.45132 12.987C8.38098 13.062 8.32682 13.1507 8.29219 13.2475C8.25756 13.3443 8.24321 13.4472 8.25002 13.5498C8.26661 13.743 8.35585 13.9227 8.49974 14.0527C8.64363 14.1826 8.83146 14.2532 9.02533 14.2501H11.25V21.3076C11.2503 21.3605 11.2395 21.4129 11.2181 21.4613C11.1967 21.5097 11.1653 21.5531 11.126 21.5885C11.0867 21.6239 11.0403 21.6506 10.99 21.6668C10.9396 21.683 10.8864 21.6884 10.8338 21.6826C8.40504 21.3868 6.17586 20.19 4.58746 18.329C2.99907 16.4681 2.16722 14.0786 2.25658 11.6335C2.44408 6.57104 6.54471 2.45541 11.611 2.25854C12.9226 2.20773 14.231 2.42199 15.458 2.8885C16.6849 3.35502 17.8051 4.0642 18.7517 4.97363C19.6982 5.88306 20.4516 6.97405 20.9668 8.18136C21.482 9.38866 21.7484 10.6875 21.75 12.0001Z" fill="black"/>
</g>
<g clip-path="url(#clip1_1_359)">
<path d="M51 12C51 12.5933 50.8241 13.1734 50.4944 13.6667C50.1648 14.1601 49.6962 14.5446 49.1481 14.7716C48.5999 14.9987 47.9967 15.0581 47.4147 14.9424C46.8328 14.8266 46.2982 14.5409 45.8787 14.1213C45.4591 13.7018 45.1734 13.1672 45.0576 12.5853C44.9419 12.0033 45.0013 11.4001 45.2284 10.8519C45.4554 10.3038 45.8399 9.83524 46.3333 9.50559C46.8266 9.17595 47.4067 9 48 9C48.7956 9 49.5587 9.31607 50.1213 9.87868C50.6839 10.4413 51 11.2044 51 12ZM57.75 7.5V16.5C57.7485 17.8919 57.1949 19.2264 56.2107 20.2107C55.2264 21.1949 53.8919 21.7485 52.5 21.75H43.5C42.1081 21.7485 40.7736 21.1949 39.7893 20.2107C38.8051 19.2264 38.2515 17.8919 38.25 16.5V7.5C38.2515 6.10807 38.8051 4.77358 39.7893 3.78933C40.7736 2.80509 42.1081 2.25149 43.5 2.25H52.5C53.8919 2.25149 55.2264 2.80509 56.2107 3.78933C57.1949 4.77358 57.7485 6.10807 57.75 7.5ZM52.5 12C52.5 11.11 52.2361 10.24 51.7416 9.49993C51.2471 8.75991 50.5443 8.18314 49.7221 7.84254C48.8998 7.50195 47.995 7.41283 47.1221 7.58647C46.2492 7.7601 45.4474 8.18868 44.818 8.81802C44.1887 9.44736 43.7601 10.2492 43.5865 11.1221C43.4128 11.995 43.5019 12.8998 43.8425 13.7221C44.1831 14.5443 44.7599 15.2471 45.4999 15.7416C46.24 16.2361 47.11 16.5 48 16.5C49.1931 16.4988 50.337 16.0243 51.1806 15.1806C52.0243 14.337 52.4988 13.1931 52.5 12ZM54.75 6.375C54.75 6.1525 54.684 5.93499 54.5604 5.74998C54.4368 5.56498 54.2611 5.42078 54.0555 5.33564C53.85 5.25049 53.6238 5.22821 53.4055 5.27162C53.1873 5.31502 52.9868 5.42217 52.8295 5.5795C52.6722 5.73684 52.565 5.93729 52.5216 6.15552C52.4782 6.37375 52.5005 6.59995 52.5856 6.80552C52.6708 7.01109 52.815 7.18679 53 7.3104C53.185 7.43402 53.4025 7.5 53.625 7.5C53.9234 7.5 54.2095 7.38147 54.4205 7.1705C54.6315 6.95952 54.75 6.67337 54.75 6.375Z" fill="black"/>
</g>
<g clip-path="url(#clip2_1_359)">
<path d="M92.25 2.25H75.75C75.3522 2.25 74.9706 2.40804 74.6893 2.68934C74.408 2.97064 74.25 3.35218 74.25 3.75V20.25C74.25 20.6478 74.408 21.0294 74.6893 21.3107C74.9706 21.592 75.3522 21.75 75.75 21.75H92.25C92.6478 21.75 93.0294 21.592 93.3107 21.3107C93.592 21.0294 93.75 20.6478 93.75 20.25V3.75C93.75 3.35218 93.592 2.97064 93.3107 2.68934C93.0294 2.40804 92.6478 2.25 92.25 2.25ZM81 16.5C81 16.6989 80.921 16.8897 80.7803 17.0303C80.6397 17.171 80.4489 17.25 80.25 17.25C80.0511 17.25 79.8603 17.171 79.7197 17.0303C79.579 16.8897 79.5 16.6989 79.5 16.5V10.5C79.5 10.3011 79.579 10.1103 79.7197 9.96967C79.8603 9.82902 80.0511 9.75 80.25 9.75C80.4489 9.75 80.6397 9.82902 80.7803 9.96967C80.921 10.1103 81 10.3011 81 10.5V16.5ZM80.25 9C80.0275 9 79.81 8.93402 79.625 8.8104C79.44 8.68679 79.2958 8.51109 79.2106 8.30552C79.1255 8.09995 79.1032 7.87375 79.1466 7.65552C79.19 7.43729 79.2972 7.23684 79.4545 7.0795C79.6118 6.92217 79.8123 6.81502 80.0305 6.77162C80.2488 6.72821 80.475 6.75049 80.6805 6.83564C80.8861 6.92078 81.0618 7.06498 81.1854 7.24998C81.309 7.43499 81.375 7.6525 81.375 7.875C81.375 8.17337 81.2565 8.45952 81.0455 8.6705C80.8345 8.88147 80.5484 9 80.25 9ZM89.25 16.5C89.25 16.6989 89.171 16.8897 89.0303 17.0303C88.8897 17.171 88.6989 17.25 88.5 17.25C88.3011 17.25 88.1103 17.171 87.9697 17.0303C87.829 16.8897 87.75 16.6989 87.75 16.5V13.125C87.75 12.6277 87.5525 12.1508 87.2008 11.7992C86.8492 11.4475 86.3723 11.25 85.875 11.25C85.3777 11.25 84.9008 11.4475 84.5492 11.7992C84.1975 12.1508 84 12.6277 84 13.125V16.5C84 16.6989 83.921 16.8897 83.7803 17.0303C83.6397 17.171 83.4489 17.25 83.25 17.25C83.0511 17.25 82.8603 17.171 82.7197 17.0303C82.579 16.8897 82.5 16.6989 82.5 16.5V10.5C82.5009 10.3163 82.5693 10.1393 82.692 10.0026C82.8148 9.86596 82.9834 9.7791 83.166 9.75852C83.3485 9.73794 83.5323 9.78508 83.6824 9.891C83.8325 9.99691 83.9385 10.1542 83.9803 10.3331C84.4877 9.98894 85.0792 9.78947 85.6914 9.75611C86.3036 9.72276 86.9133 9.85679 87.455 10.1438C87.9968 10.4308 88.4501 10.86 88.7664 11.3852C89.0826 11.9105 89.2498 12.5119 89.25 13.125V16.5Z" fill="black"/>
</g>
<g clip-path="url(#clip3_1_359)">
<path d="M128.156 20.6109C128.092 20.7286 127.997 20.8267 127.881 20.8951C127.766 20.9636 127.634 20.9998 127.5 21H123C122.874 21 122.75 20.9681 122.639 20.9073C122.528 20.8465 122.435 20.7587 122.367 20.6522L118.571 14.6869L113.055 20.7544C112.921 20.8988 112.735 20.9845 112.537 20.9927C112.34 21.0009 112.148 20.9311 112.002 20.7984C111.856 20.6657 111.768 20.4807 111.757 20.2836C111.747 20.0866 111.814 19.8933 111.945 19.7456L117.736 13.3706L111.867 4.15313C111.795 4.03973 111.754 3.90898 111.75 3.77458C111.746 3.64018 111.777 3.50707 111.842 3.38918C111.907 3.27129 112.002 3.17296 112.118 3.10449C112.234 3.03603 112.366 2.99993 112.5 3H117C117.126 3.00004 117.25 3.03194 117.361 3.09274C117.472 3.15353 117.565 3.24127 117.633 3.34781L121.429 9.31312L126.945 3.24562C127.079 3.10117 127.265 3.01555 127.463 3.00731C127.66 2.99907 127.852 3.06888 127.998 3.20161C128.144 3.33435 128.232 3.51929 128.243 3.71636C128.253 3.91343 128.186 4.10674 128.055 4.25438L122.264 10.6247L128.133 19.8478C128.205 19.9613 128.245 20.0919 128.249 20.2262C128.253 20.3604 128.221 20.4933 128.156 20.6109Z" fill="black"/>
</g>
<defs>
<clipPath id="clip0_1_359">
<rect width="24" height="24" fill="white"/>
</clipPath>
<clipPath id="clip1_1_359">
<rect width="24" height="24" fill="white" transform="translate(36)"/>
</clipPath>
<clipPath id="clip2_1_359">
<rect width="24" height="24" fill="white" transform="translate(72)"/>
</clipPath>
<clipPath id="clip3_1_359">
<rect width="24" height="24" fill="white" transform="translate(108)"/>
</clipPath>
</defs>
</svg>
