<svg width="77" height="12" viewBox="0 0 77 12" fill="none" xmlns="http://www.w3.org/2000/svg">
<path d="M1.28068 0V4.76142H2.8839V0H1.28068Z" fill="black"/>
<path d="M5.58951 0V7.14213H7.19272V0H5.58951Z" fill="black"/>
<path d="M9.99835 4.76142V0H11.6016V4.76142H9.99835Z" fill="black"/>
<path d="M6.39112 12C3.32861 12 0.752307 9.93919 0 7.14195H1.67903C2.37686 9.04969 4.22319 10.4129 6.39112 10.4129C8.55905 10.4129 10.4054 9.04969 11.1032 7.14195H12.7822C12.0299 9.93919 9.45363 12 6.39112 12Z" fill="black"/>
<path d="M18.9159 9.17261V4.16854H16.9976V2.82752H22.5251V4.16854H20.6069V9.17261H18.9159Z" fill="black"/>
<path d="M24.7298 9.17261V2.82752H29.2845V4.10554H26.3571V5.31156H29.1027V6.58057H26.3571V7.89459H29.2845V9.17261H24.7298Z" fill="black"/>
<path d="M36.4717 9.17261L35.899 7.85859H33.0625L32.4897 9.17261H30.8079L33.7989 2.82752H35.1262L38.1264 9.17261H36.4717ZM33.5989 6.61658H35.3626L34.4807 4.58254L33.5989 6.61658Z" fill="black"/>
<path d="M45.2031 2.82752H46.4941V9.17261H45.0395V5.84256L43.803 8.1196H42.7303L41.5029 5.89656L41.4939 9.17261H40.0392V2.82752H41.3575L43.2848 6.43657L45.2031 2.82752Z" fill="black"/>
<path d="M50.6348 9.17261V4.16854H48.7166V2.82752H54.2441V4.16854H52.3258V9.17261H50.6348Z" fill="black"/>
<path d="M60.4962 9.17261L59.9234 7.85859H57.087L56.5142 9.17261H54.8323L57.8234 2.82752H59.1507L62.1508 9.17261H60.4962ZM57.6233 6.61658H59.3871L58.5052 4.58254L57.6233 6.61658Z" fill="black"/>
<path d="M64.0455 9.17261V2.82752H65.7183V7.83159H68.4457V9.17261H64.0455Z" fill="black"/>
<path d="M77 9.17261H75.0181L72.4362 6.30157V9.17261H70.7634V2.82752H72.4362V5.55456L74.9454 2.82752H76.9L74.0726 5.84256L77 9.17261Z" fill="black"/>
</svg>
