<svg width="58" height="12" viewBox="0 0 58 12" fill="none" xmlns="http://www.w3.org/2000/svg">
<path d="M4.74456 0.75L4.74456 7.5L0.79076 7.5C0.354035 7.5 0 7.83579 0 8.25V11.25C0 11.6642 0.354036 12 0.790761 12H3.9538C4.39053 12 4.74456 11.6642 4.74456 11.25L4.74456 7.5H11.8614C12.2981 7.5 12.6522 7.16421 12.6522 6.75V0.75C12.6522 0.335786 12.2981 0 11.8614 0H5.53532C5.0986 0 4.74456 0.335787 4.74456 0.75Z" fill="black"/>
<path d="M17.3307 10.5V1.5H19.6714C20.3883 1.5 20.9577 1.704 21.3794 2.112C21.8011 2.516 22.012 3.052 22.012 3.72V4.92C22.012 5.584 21.8011 6.12 21.3794 6.528C20.9577 6.936 20.3883 7.14 19.6714 7.14H19.0387V10.5H17.3307ZM19.0387 5.52H19.6714C19.8738 5.52 20.0298 5.466 20.1395 5.358C20.2491 5.246 20.304 5.1 20.304 4.92V3.72C20.304 3.54 20.2491 3.396 20.1395 3.288C20.0298 3.176 19.8738 3.12 19.6714 3.12H19.0387V5.52Z" fill="black"/>
<path d="M21.8974 10.5L23.694 1.5H25.5413L27.2999 10.5H25.5539L25.3388 9.096H23.8712L23.6434 10.5H21.8974ZM24.1242 7.476H25.0858L24.5038 3.684H24.7315L24.1242 7.476Z" fill="black"/>
<path d="M28.736 10.5V6.42L26.7496 1.5H28.4956L29.8368 5.304H29.356L30.6592 1.5H32.4052L30.4441 6.42V10.5H28.736Z" fill="black"/>
<path d="M35.0289 10.692C34.3415 10.692 33.789 10.488 33.3715 10.08C32.9582 9.672 32.7515 9.136 32.7515 8.472V8.112H33.9535V8.472C33.9535 8.796 34.0505 9.058 34.2445 9.258C34.4385 9.454 34.7 9.552 35.0289 9.552C35.3579 9.552 35.6193 9.454 35.8133 9.258C36.0073 9.058 36.1043 8.796 36.1043 8.472V7.716C36.1043 7.532 36.098 7.388 36.0854 7.284C36.0727 7.176 36.0348 7.09 35.9715 7.026C35.9082 6.962 35.8028 6.902 35.6552 6.846C35.5076 6.786 35.2988 6.716 35.0289 6.636C34.4596 6.464 34.0188 6.32 33.7068 6.204C33.3947 6.084 33.1712 5.958 33.0362 5.826C32.9012 5.69 32.819 5.514 32.7895 5.298C32.7642 5.082 32.7515 4.788 32.7515 4.416V3.528C32.7515 2.86 32.9582 2.324 33.3715 1.92C33.789 1.512 34.3415 1.308 35.0289 1.308C35.7206 1.308 36.273 1.512 36.6863 1.92C37.0996 2.324 37.3063 2.86 37.3063 3.528V3.888H36.1043V3.528C36.1043 3.204 36.0073 2.944 35.8133 2.748C35.6193 2.548 35.3579 2.448 35.0289 2.448C34.7 2.448 34.4385 2.548 34.2445 2.748C34.0505 2.944 33.9535 3.204 33.9535 3.528V4.416C33.9535 4.596 33.9598 4.74 33.9725 4.848C33.9893 4.952 34.0273 5.038 34.0863 5.106C34.1496 5.17 34.255 5.23 34.4026 5.286C34.5545 5.342 34.7632 5.412 35.0289 5.496C35.5983 5.668 36.039 5.812 36.3511 5.928C36.6631 6.044 36.8867 6.17 37.0216 6.306C37.1566 6.438 37.2367 6.612 37.262 6.828C37.2915 7.044 37.3063 7.34 37.3063 7.716V8.472C37.3063 9.136 37.0996 9.672 36.6863 10.08C36.273 10.488 35.7206 10.692 35.0289 10.692Z" fill="black"/>
<path d="M43.0627 8.112V8.472C43.0627 9.136 42.8561 9.672 42.4428 10.08C42.0295 10.488 41.477 10.692 40.7853 10.692C40.0979 10.692 39.5454 10.488 39.1279 10.08C38.7146 9.672 38.508 9.136 38.508 8.472V3.528C38.508 2.86 38.7146 2.324 39.1279 1.92C39.5454 1.512 40.0979 1.308 40.7853 1.308C41.477 1.308 42.0295 1.512 42.4428 1.92C42.8561 2.324 43.0627 2.86 43.0627 3.528V3.888H41.8608V3.528C41.8608 3.204 41.7638 2.944 41.5698 2.748C41.3758 2.548 41.1143 2.448 40.7853 2.448C40.4564 2.448 40.1949 2.548 40.0009 2.748C39.8069 2.944 39.7099 3.204 39.7099 3.528V8.472C39.7099 8.796 39.8069 9.058 40.0009 9.258C40.1949 9.454 40.4564 9.552 40.7853 9.552C41.1143 9.552 41.3758 9.454 41.5698 9.258C41.7638 9.058 41.8608 8.796 41.8608 8.472V8.112H43.0627Z" fill="black"/>
<path d="M43.4851 10.5L45.4588 1.5H46.7494L48.7041 10.5H47.4705L47.1289 8.832H45.0666L44.7187 10.5H43.4851ZM45.2691 7.692H46.9265L46.0155 3.09H46.1927L45.2691 7.692Z" fill="black"/>
<path d="M50.8456 1.5V9.36H53.2495V10.5H49.6436V1.5H50.8456Z" fill="black"/>
<path d="M58 1.5V2.64H55.343V5.34H57.6584V6.48H55.343V9.36H58V10.5H54.1411V1.5H58Z" fill="black"/>
</svg>
