<svg width="98" height="20" viewBox="0 0 98 20" fill="none" xmlns="http://www.w3.org/2000/svg">
<path d="M18.5062 0H2.85924L2.84171 0.0961342C2.80039 0.0942893 2.75889 0.0933182 2.71714 0.0933182C1.21652 0.0933182 0 1.33986 0 2.87752C0 3.94626 0.587599 4.8743 1.44983 5.34099L17.5834 9.50282H24.7168L18.5062 0Z" fill="white"/>
<path d="M18.8997 11.379L10.2092 10.4972H1.55265L7.76326 20H23.4102L23.4277 19.9039C23.469 19.9057 23.5105 19.9067 23.5523 19.9067C25.0529 19.9067 26.2694 18.6601 26.2694 17.1225C26.2694 15.8645 25.4552 14.8014 24.3373 14.4563L18.8997 11.379Z" fill="white"/>
<path d="M32.6532 15.6935C32.6532 18.2563 34.6643 20 37.8357 20C40.9813 20 43.173 18.362 43.173 15.7199C43.173 13.712 42.09 12.7081 39.95 12.2061L37.6552 11.6513C36.5723 11.3871 36.0051 10.9115 36.0051 10.1717C36.0051 9.19419 36.727 8.61295 37.9647 8.61295C39.1765 8.61295 39.8984 9.32629 39.9242 10.4359H42.9151C42.8893 7.8996 40.9556 6.20872 38.0936 6.20872C35.1542 6.20872 33.04 7.74108 33.04 10.3038C33.04 12.391 34.1487 13.5007 36.4434 14.0291L38.7382 14.5839C39.8726 14.8481 40.2078 15.3236 40.2078 15.9841C40.2078 16.9353 39.4085 17.5429 37.9389 17.5429C36.495 17.5429 35.6699 16.8296 35.6441 15.6935H32.6532Z" fill="white"/>
<path d="M49.6547 20C52.9808 20 55.3014 18.2827 55.8428 15.4293H52.9293C52.5683 16.6711 51.4338 17.358 49.7063 17.358C47.6178 17.358 46.4318 16.1955 46.1997 13.897L55.7913 13.8705V12.893C55.7913 8.8243 53.3676 6.20872 49.5516 6.20872C45.813 6.20872 43.2088 9.03567 43.2088 13.1308C43.2088 17.1731 45.8645 20 49.6547 20ZM49.5774 8.85073C51.4596 8.85073 52.6714 10.0396 52.6714 11.8362H46.2771C46.5865 9.88111 47.721 8.85073 49.5774 8.85073Z" fill="white"/>
<path d="M59.8687 19.6565V0H56.7489V19.6565H59.8687Z" fill="white"/>
<path d="M60.2935 6.60502V9.29987H62.1242V19.6565H65.244V9.29987H68.2865V6.60502H65.244V5.01981C65.244 3.72523 65.6308 2.87979 67.2294 2.87979H68.3381V0.1321C67.7966 0.0264197 67.2036 0 66.7137 0C63.9548 0 62.1242 1.47952 62.1242 5.01981V6.60502H60.2935Z" fill="white"/>
<path d="M72.1456 20C74.1309 20 75.8584 19.0753 76.3999 17.7279L76.632 19.6565H79.3908V11.7305C79.3908 8.11096 77.2766 6.20872 73.8473 6.20872C70.3923 6.20872 68.1233 8.05812 68.1233 10.8851H70.8048C70.8048 9.51123 71.8362 8.71863 73.6926 8.71863C75.2912 8.71863 76.3226 9.43197 76.3226 11.2021V11.4927L72.5066 11.7834C69.4899 12.0211 67.7881 13.5271 67.7881 15.9313C67.7881 18.3884 69.4383 20 72.1456 20ZM73.1769 17.5694C71.7588 17.5694 70.9853 16.9881 70.9853 15.7992C70.9853 14.7424 71.7331 14.0819 73.6926 13.897L76.3483 13.6856V14.3725C76.3483 16.3804 75.1107 17.5694 73.1769 17.5694Z" fill="white"/>
<path d="M79.8898 15.6935C79.8898 18.2563 81.9009 20 85.0723 20C88.2179 20 90.4095 18.362 90.4095 15.7199C90.4095 13.712 89.3266 12.7081 87.1866 12.2061L84.8918 11.6513C83.8089 11.3871 83.2417 10.9115 83.2417 10.1717C83.2417 9.19419 83.9636 8.61295 85.2012 8.61295C86.413 8.61295 87.135 9.32629 87.1608 10.4359H90.1517C90.1259 7.8996 88.1921 6.20872 85.3301 6.20872C82.3908 6.20872 80.2765 7.74108 80.2765 10.3038C80.2765 12.391 81.3852 13.5007 83.68 14.0291L85.9747 14.5839C87.1092 14.8481 87.4444 15.3236 87.4444 15.9841C87.4444 16.9353 86.6451 17.5429 85.1754 17.5429C83.7315 17.5429 82.9065 16.8296 82.8807 15.6935H79.8898Z" fill="white"/>
<path d="M95.5248 19.6565V9.29987H98V6.60502H95.5248V2.53633H92.3792V6.60502H89.9297V9.29987H92.3792V19.6565H95.5248Z" fill="white"/>
</svg>
