<svg width="74" height="12" viewBox="0 0 74 12" fill="none" xmlns="http://www.w3.org/2000/svg">
<path d="M12.6034 1C8.49015 1 4.69194 3.18344 2.85244 6.64002L0 12H4.11828C5.73086 12 7.20504 11.144 7.92621 9.78885L12.6034 1Z" fill="black"/>
<path d="M13.799 1L11.0811 6.6048L13.799 12H20.5485L13.799 1Z" fill="black"/>
<path d="M26.88 12C26.1237 12 25.4533 11.8331 24.8688 11.4993C24.2843 11.1548 23.8317 10.6703 23.5108 10.0458C23.2014 9.4105 23.0467 8.66756 23.0467 7.81696C23.0467 6.95559 23.2071 6.20727 23.528 5.57201C23.8489 4.92598 24.2958 4.4253 24.8688 4.06999C25.4533 3.7039 26.1237 3.52086 26.88 3.52086C27.6135 3.52086 28.2495 3.69314 28.7881 4.03769C29.3382 4.37147 29.7107 4.83984 29.9055 5.4428L29.6992 5.55585V3.73082H31.8136V11.8869H29.6992V10.0458L29.9055 10.1104C29.7107 10.7133 29.3382 11.1817 28.7881 11.5155C28.2495 11.8385 27.6135 12 26.88 12ZM27.4645 10.4495C28.175 10.4495 28.7251 10.218 29.1147 9.75505C29.5044 9.29206 29.6992 8.63526 29.6992 7.78466C29.6992 6.91252 29.5044 6.25034 29.1147 5.79812C28.7251 5.33513 28.175 5.10363 27.4645 5.10363C26.7425 5.10363 26.181 5.34051 25.7799 5.81427C25.3788 6.28802 25.1782 6.95559 25.1782 7.81696C25.1782 8.6568 25.3788 9.30821 25.7799 9.7712C26.181 10.2234 26.7425 10.4495 27.4645 10.4495Z" fill="black"/>
<path d="M33.4204 11.8869V6.04038C33.4204 5.66353 33.4089 5.28129 33.386 4.89367C33.3745 4.49529 33.3402 4.10767 33.2829 3.73082H35.3113L35.5519 5.83042L35.3113 5.71736C35.4603 4.99596 35.7983 4.45222 36.3255 4.08614C36.8527 3.72005 37.4486 3.53701 38.1133 3.53701C38.2852 3.53701 38.4456 3.54778 38.5946 3.56931C38.7436 3.59085 38.8754 3.62315 38.99 3.66622L38.9556 5.5074C38.6003 5.36743 38.2221 5.29744 37.821 5.29744C37.3053 5.29744 36.8813 5.39435 36.549 5.58816C36.2281 5.78197 35.9817 6.04576 35.8098 6.37954C35.6494 6.70256 35.5691 7.06864 35.5691 7.47779V11.8869H33.4204Z" fill="black"/>
<path d="M45.3835 11.8869L41.2063 7.73621L45.16 3.74697H47.7729L43.2863 8.20458L43.3895 7.18708L48.0652 11.8869H45.3835ZM39.4358 11.8869V0H41.5845V11.8869H39.4358Z" fill="black"/>
<path d="M47.1049 5.24899V3.73082H53.2245V5.24899H47.1049ZM53.2245 10.2073V11.8062C52.9953 11.8816 52.7661 11.93 52.5369 11.9515C52.3192 11.9839 52.0843 12 51.8321 12C50.858 12 50.1017 11.7416 49.5631 11.2248C49.0359 10.7079 48.7723 9.96501 48.7723 8.99596V1.74428L50.9211 1.06595V8.89906C50.9211 9.26514 50.9841 9.55585 51.1102 9.7712C51.2362 9.97577 51.4024 10.1211 51.6087 10.2073C51.8264 10.2934 52.0671 10.3365 52.3306 10.3365C52.4796 10.3365 52.6229 10.3257 52.7604 10.3042C52.8979 10.2826 53.0526 10.2503 53.2245 10.2073Z" fill="black"/>
<path d="M53.9678 11.8869V3.73082H56.1166V11.8869H53.9678ZM53.8647 0.75L56.2541 0.032302V2.01884H53.8647V0.75Z" fill="black"/>
<path d="M61.6535 12C60.7481 12 59.9631 11.8331 59.2984 11.4993C58.6452 11.1548 58.141 10.6703 57.7857 10.0458C57.4419 9.4105 57.27 8.66756 57.27 7.81696C57.27 6.95559 57.4534 6.20188 57.8201 5.55585C58.1868 4.90983 58.7082 4.40915 59.3844 4.05384C60.0605 3.69852 60.8513 3.52086 61.7566 3.52086C62.364 3.52086 62.9542 3.61238 63.5272 3.79542C64.1116 3.97847 64.5872 4.23149 64.9539 4.55451L64.3351 5.97577C63.9684 5.69583 63.5787 5.48587 63.1662 5.34589C62.7536 5.19515 62.3411 5.11978 61.9285 5.11978C61.1721 5.11978 60.5705 5.3459 60.1235 5.79812C59.6881 6.25034 59.4703 6.91252 59.4703 7.78466C59.4703 8.64603 59.6881 9.30283 60.1235 9.75505C60.559 10.2073 61.1664 10.4334 61.9457 10.4334C62.3468 10.4334 62.7536 10.3634 63.1662 10.2234C63.5787 10.0727 63.9684 9.85195 64.3351 9.56124L64.9539 10.9825C64.5758 11.3055 64.0887 11.5585 63.4928 11.7416C62.9083 11.9139 62.2952 12 61.6535 12Z" fill="black"/>
<path d="M69.6165 12C68.7112 12 67.9262 11.8277 67.2615 11.4832C66.6083 11.1386 66.104 10.6541 65.7488 10.0296C65.3935 9.39435 65.2159 8.64065 65.2159 7.76851C65.2159 6.90713 65.3935 6.15882 65.7488 5.52355C66.104 4.87752 66.6083 4.38223 67.2615 4.03769C67.9262 3.69314 68.7112 3.52086 69.6165 3.52086C70.499 3.52086 71.2668 3.69314 71.92 4.03769C72.5847 4.38223 73.0947 4.87752 73.4499 5.52355C73.8166 6.15882 74 6.90713 74 7.76851C74 8.64065 73.8166 9.39435 73.4499 10.0296C73.0947 10.6541 72.5847 11.1386 71.92 11.4832C71.2668 11.8277 70.499 12 69.6165 12ZM69.6165 10.4495C70.3271 10.4495 70.8714 10.2288 71.2496 9.78735C71.6392 9.33513 71.8341 8.66218 71.8341 7.76851C71.8341 6.8856 71.6392 6.22342 71.2496 5.78197C70.8714 5.32974 70.3271 5.10363 69.6165 5.10363C68.8946 5.10363 68.333 5.32974 67.9319 5.78197C67.5423 6.22342 67.3475 6.8856 67.3475 7.76851C67.3475 8.66218 67.5423 9.33513 67.9319 9.78735C68.3216 10.2288 68.8831 10.4495 69.6165 10.4495Z" fill="black"/>
</svg>
