<svg width="40" height="40" viewBox="0 0 40 40" fill="none" xmlns="http://www.w3.org/2000/svg">
<rect width="40" height="40" rx="20" fill="white"/>
<g clip-path="url(#clip0_1_178)">
<path d="M27.401 13.9395H12.401C12.2352 13.9395 12.0763 14.0053 11.9591 14.1225C11.8418 14.2397 11.776 14.3987 11.776 14.5645V25.1895C11.776 25.521 11.9077 25.8389 12.1421 26.0733C12.3765 26.3078 12.6945 26.4395 13.026 26.4395H26.776C27.1075 26.4395 27.4255 26.3078 27.6599 26.0733C27.8943 25.8389 28.026 25.521 28.026 25.1895V14.5645C28.026 14.3987 27.9602 14.2397 27.8429 14.1225C27.7257 14.0053 27.5668 13.9395 27.401 13.9395ZM17.6127 20.1895L13.026 24.3934V15.9855L17.6127 20.1895ZM18.5377 21.0371L19.4752 21.9004C19.5905 22.0062 19.7414 22.065 19.8979 22.065C20.0544 22.065 20.2052 22.0062 20.3205 21.9004L21.258 21.0371L25.7893 25.1895H14.008L18.5377 21.0371ZM22.1893 20.1895L26.776 15.9848V24.3941L22.1893 20.1895Z" fill="#080800"/>
</g>
<defs>
<clipPath id="clip0_1_178">
<rect width="20" height="20" fill="white" transform="translate(9.901 10.1895)"/>
</clipPath>
</defs>
</svg>
