<svg width="20" height="20" viewBox="0 0 20 20" fill="none" xmlns="http://www.w3.org/2000/svg">
<g clip-path="url(#clip0_1_157)">
<path d="M16.707 9.80157L7.95703 19.1766C7.8643 19.2755 7.74191 19.3416 7.60831 19.3649C7.47472 19.3882 7.33717 19.3674 7.21643 19.3057C7.09568 19.244 6.9983 19.1446 6.93896 19.0227C6.87963 18.9007 6.86156 18.7628 6.8875 18.6297L8.75005 12.0833L3.53047 11.2102C3.43377 11.174 3.34754 11.1144 3.27948 11.0368C3.21143 10.9592 3.16365 10.8659 3.14044 10.7653C3.11723 10.6647 3.11929 10.5599 3.14645 10.4603C3.17362 10.3607 3.22503 10.2694 3.29609 10.1945L12.0461 0.819538C12.1388 0.720581 12.2612 0.654468 12.3948 0.631176C12.5284 0.607884 12.666 0.628675 12.7867 0.690414C12.9074 0.752152 13.0048 0.851488 13.0642 0.97343C13.1235 1.09537 13.1416 1.2333 13.1156 1.36641L11.6667 8.33332L16.4695 8.78985C16.5655 8.82626 16.651 8.88576 16.7186 8.96307C16.7861 9.04039 16.8336 9.13315 16.8567 9.23316C16.8799 9.33317 16.8781 9.43734 16.8514 9.53648C16.8248 9.63562 16.7741 9.72666 16.7039 9.80157H16.707Z" fill="url(#paint0_linear_1_157)"/>
</g>
<defs>
<linearGradient id="paint0_linear_1_157" x1="10.014" y1="0.621887" x2="9.24226" y2="19.3437" gradientUnits="userSpaceOnUse">
<stop stop-color="#FEDD00"/>
<stop offset="1" stop-color="#FEDD00"/>
</linearGradient>
<clipPath id="clip0_1_157">
<rect width="20" height="20" fill="white"/>
</clipPath>
</defs>
</svg>
