<svg width="96" height="16" viewBox="0 0 96 16" fill="none" xmlns="http://www.w3.org/2000/svg">
<g clip-path="url(#clip0_1_262)">
<path d="M14.6431 7.17815L11.8306 9.60502L12.6875 13.2344C12.7348 13.4314 12.7226 13.638 12.6525 13.8281C12.5824 14.0182 12.4576 14.1833 12.2937 14.3025C12.1299 14.4217 11.9344 14.4896 11.7319 14.4977C11.5295 14.5059 11.3291 14.4538 11.1563 14.3481L8.00001 12.4056L4.84188 14.3481C4.66902 14.4532 4.46895 14.5048 4.26684 14.4963C4.06474 14.4879 3.86965 14.4199 3.70613 14.3008C3.54262 14.1817 3.41799 14.0169 3.34795 13.8272C3.2779 13.6374 3.26557 13.4312 3.31251 13.2344L4.17251 9.60502L1.36001 7.17815C1.20707 7.04597 1.09646 6.87166 1.042 6.67699C0.987532 6.48232 0.991626 6.27592 1.05377 6.08356C1.11591 5.89121 1.23334 5.72142 1.3914 5.59541C1.54946 5.4694 1.74114 5.39274 1.94251 5.37502L5.63001 5.07752L7.05251 1.63502C7.1295 1.44741 7.26055 1.28693 7.42899 1.17398C7.59743 1.06104 7.79564 1.00073 7.99844 1.00073C8.20124 1.00073 8.39946 1.06104 8.5679 1.17398C8.73634 1.28693 8.86738 1.44741 8.94438 1.63502L10.3663 5.07752L14.0538 5.37502C14.2555 5.39209 14.4478 5.46831 14.6064 5.59415C14.765 5.71999 14.883 5.88984 14.9455 6.08243C15.0081 6.27502 15.0124 6.48178 14.9579 6.6768C14.9034 6.87183 14.7926 7.04644 14.6394 7.17877L14.6431 7.17815Z" fill="#FFC800"/>
</g>
<g clip-path="url(#clip1_1_262)">
<path d="M34.6431 7.17815L31.8306 9.60502L32.6875 13.2344C32.7348 13.4314 32.7226 13.638 32.6525 13.8281C32.5824 14.0182 32.4576 14.1833 32.2937 14.3025C32.1299 14.4217 31.9344 14.4896 31.7319 14.4977C31.5295 14.5059 31.3291 14.4538 31.1563 14.3481L28 12.4056L24.8419 14.3481C24.669 14.4532 24.4689 14.5048 24.2668 14.4963C24.0647 14.4879 23.8696 14.4199 23.7061 14.3008C23.5426 14.1817 23.418 14.0169 23.3479 13.8272C23.2779 13.6374 23.2656 13.4312 23.3125 13.2344L24.1725 9.60502L21.36 7.17815C21.2071 7.04597 21.0965 6.87166 21.042 6.67699C20.9875 6.48232 20.9916 6.27592 21.0538 6.08356C21.1159 5.89121 21.2333 5.72142 21.3914 5.59541C21.5495 5.4694 21.7411 5.39274 21.9425 5.37502L25.63 5.07752L27.0525 1.63502C27.1295 1.44741 27.2606 1.28693 27.429 1.17398C27.5974 1.06104 27.7956 1.00073 27.9984 1.00073C28.2012 1.00073 28.3995 1.06104 28.5679 1.17398C28.7363 1.28693 28.8674 1.44741 28.9444 1.63502L30.3663 5.07752L34.0538 5.37502C34.2555 5.39209 34.4478 5.46831 34.6064 5.59415C34.765 5.71999 34.883 5.88984 34.9455 6.08243C35.0081 6.27502 35.0124 6.48178 34.9579 6.6768C34.9034 6.87183 34.7926 7.04644 34.6394 7.17877L34.6431 7.17815Z" fill="#FFC800"/>
</g>
<g clip-path="url(#clip2_1_262)">
<path d="M54.6431 7.17815L51.8306 9.60502L52.6875 13.2344C52.7348 13.4314 52.7226 13.638 52.6525 13.8281C52.5824 14.0182 52.4576 14.1833 52.2937 14.3025C52.1299 14.4217 51.9344 14.4896 51.7319 14.4977C51.5294 14.5059 51.3291 14.4538 51.1562 14.3481L48 12.4056L44.8419 14.3481C44.669 14.4532 44.4689 14.5048 44.2668 14.4963C44.0647 14.4879 43.8696 14.4199 43.7061 14.3008C43.5426 14.1817 43.418 14.0169 43.3479 13.8272C43.2779 13.6374 43.2656 13.4312 43.3125 13.2344L44.1725 9.60502L41.36 7.17815C41.2071 7.04597 41.0965 6.87166 41.042 6.67699C40.9875 6.48232 40.9916 6.27592 41.0538 6.08356C41.1159 5.89121 41.2333 5.72142 41.3914 5.59541C41.5495 5.4694 41.7411 5.39274 41.9425 5.37502L45.63 5.07752L47.0525 1.63502C47.1295 1.44741 47.2605 1.28693 47.429 1.17398C47.5974 1.06104 47.7956 1.00073 47.9984 1.00073C48.2012 1.00073 48.3995 1.06104 48.5679 1.17398C48.7363 1.28693 48.8674 1.44741 48.9444 1.63502L50.3662 5.07752L54.0537 5.37502C54.2555 5.39209 54.4478 5.46831 54.6064 5.59415C54.765 5.71999 54.883 5.88984 54.9455 6.08243C55.0081 6.27502 55.0124 6.48178 54.9579 6.6768C54.9034 6.87183 54.7926 7.04644 54.6394 7.17877L54.6431 7.17815Z" fill="#FFC800"/>
</g>
<g clip-path="url(#clip3_1_262)">
<path d="M74.6431 7.17815L71.8306 9.60502L72.6875 13.2344C72.7348 13.4314 72.7226 13.638 72.6525 13.8281C72.5824 14.0182 72.4576 14.1833 72.2937 14.3025C72.1299 14.4217 71.9344 14.4896 71.7319 14.4977C71.5294 14.5059 71.3291 14.4538 71.1562 14.3481L68 12.4056L64.8419 14.3481C64.669 14.4532 64.4689 14.5048 64.2668 14.4963C64.0647 14.4879 63.8696 14.4199 63.7061 14.3008C63.5426 14.1817 63.418 14.0169 63.3479 13.8272C63.2779 13.6374 63.2656 13.4312 63.3125 13.2344L64.1725 9.60502L61.36 7.17815C61.2071 7.04597 61.0965 6.87166 61.042 6.67699C60.9875 6.48232 60.9916 6.27592 61.0538 6.08356C61.1159 5.89121 61.2333 5.72142 61.3914 5.59541C61.5495 5.4694 61.7411 5.39274 61.9425 5.37502L65.63 5.07752L67.0525 1.63502C67.1295 1.44741 67.2605 1.28693 67.429 1.17398C67.5974 1.06104 67.7956 1.00073 67.9984 1.00073C68.2012 1.00073 68.3995 1.06104 68.5679 1.17398C68.7363 1.28693 68.8674 1.44741 68.9444 1.63502L70.3662 5.07752L74.0537 5.37502C74.2555 5.39209 74.4478 5.46831 74.6064 5.59415C74.765 5.71999 74.883 5.88984 74.9455 6.08243C75.0081 6.27502 75.0124 6.48178 74.9579 6.6768C74.9034 6.87183 74.7926 7.04644 74.6394 7.17877L74.6431 7.17815Z" fill="#FFC800"/>
</g>
<g clip-path="url(#clip4_1_262)">
<path d="M94.6431 7.17815L91.8306 9.60502L92.6875 13.2344C92.7348 13.4314 92.7226 13.638 92.6525 13.8281C92.5824 14.0182 92.4576 14.1833 92.2937 14.3025C92.1299 14.4217 91.9344 14.4896 91.7319 14.4977C91.5294 14.5059 91.3291 14.4538 91.1562 14.3481L88 12.4056L84.8419 14.3481C84.669 14.4532 84.4689 14.5048 84.2668 14.4963C84.0647 14.4879 83.8696 14.4199 83.7061 14.3008C83.5426 14.1817 83.418 14.0169 83.3479 13.8272C83.2779 13.6374 83.2656 13.4312 83.3125 13.2344L84.1725 9.60502L81.36 7.17815C81.2071 7.04597 81.0965 6.87166 81.042 6.67699C80.9875 6.48232 80.9916 6.27592 81.0538 6.08356C81.1159 5.89121 81.2333 5.72142 81.3914 5.59541C81.5495 5.4694 81.7411 5.39274 81.9425 5.37502L85.63 5.07752L87.0525 1.63502C87.1295 1.44741 87.2605 1.28693 87.429 1.17398C87.5974 1.06104 87.7956 1.00073 87.9984 1.00073C88.2012 1.00073 88.3995 1.06104 88.5679 1.17398C88.7363 1.28693 88.8674 1.44741 88.9444 1.63502L90.3662 5.07752L94.0537 5.37502C94.2555 5.39209 94.4478 5.46831 94.6064 5.59415C94.765 5.71999 94.883 5.88984 94.9455 6.08243C95.0081 6.27502 95.0124 6.48178 94.9579 6.6768C94.9034 6.87183 94.7926 7.04644 94.6394 7.17877L94.6431 7.17815Z" fill="url(#paint0_linear_1_262)"/>
</g>
<defs>
<linearGradient id="paint0_linear_1_262" x1="81.0039" y1="7.80075" x2="94.9958" y2="7.69855" gradientUnits="userSpaceOnUse">
<stop offset="0.5" stop-color="#FFC800"/>
<stop offset="0.5" stop-color="#C7C7CD"/>
</linearGradient>
<clipPath id="clip0_1_262">
<rect width="16" height="16" fill="white"/>
</clipPath>
<clipPath id="clip1_1_262">
<rect width="16" height="16" fill="white" transform="translate(20)"/>
</clipPath>
<clipPath id="clip2_1_262">
<rect width="16" height="16" fill="white" transform="translate(40)"/>
</clipPath>
<clipPath id="clip3_1_262">
<rect width="16" height="16" fill="white" transform="translate(60)"/>
</clipPath>
<clipPath id="clip4_1_262">
<rect width="16" height="16" fill="white" transform="translate(80)"/>
</clipPath>
</defs>
</svg>
