<svg width="65" height="12" viewBox="0 0 65 12" fill="none" xmlns="http://www.w3.org/2000/svg">
<path d="M11.1146 6C11.1146 8.48528 8.98195 10.5 6.3512 10.5C3.72045 10.5 1.5878 8.48528 1.5878 6C1.5878 3.51472 3.72045 1.5 6.3512 1.5C7.42193 1.5 8.41014 1.83375 9.20565 2.39713H6.35125C4.15895 2.39713 2.38175 4.07606 2.38175 6.14713C2.38175 8.21819 4.15895 9.89713 6.35125 9.89713C8.54354 9.89713 10.3207 8.21819 10.3207 6.14713V5.39713H5.80539L5.01149 6.89713H8.59742C8.27046 7.77102 7.38825 8.39713 6.35125 8.39713C5.03587 8.39713 3.96955 7.38977 3.96955 6.14713C3.96955 4.90448 5.03587 3.89713 6.35125 3.89713H10.5636C10.5647 3.89908 10.5658 3.90103 10.5669 3.90298H12.3037C11.4035 1.62342 9.07802 0 6.3512 0C2.84353 0 0 2.68629 0 6C0 9.31371 2.84353 12 6.3512 12C9.85887 12 12.7024 9.31371 12.7024 6C12.7024 5.78649 12.6906 5.57558 12.6676 5.36783H11.068C11.0987 5.57438 11.1146 5.78544 11.1146 6Z" fill="black"/>
<path d="M17.608 11.3333C17.2925 11.3333 16.9807 11.2884 16.6728 11.1987C16.3686 11.1125 16.0873 10.9742 15.8288 10.7838C15.5703 10.5971 15.3536 10.3529 15.1787 10.0512L15.9372 9.65252C16.1082 9.97576 16.3477 10.2074 16.6557 10.3475C16.9674 10.4911 17.2849 10.563 17.608 10.563C18.0528 10.563 18.4121 10.484 18.6858 10.3259C18.9633 10.1715 19.1648 9.94164 19.2902 9.63636C19.4157 9.33109 19.4765 8.95039 19.4727 8.49428V6.94276H19.5697V2.76768H20.3167V8.50505C20.3167 8.67026 20.311 8.82828 20.2996 8.97912C20.292 9.13356 20.2749 9.2844 20.2483 9.43165C20.176 9.86622 20.0259 10.2236 19.7978 10.5037C19.5735 10.7838 19.2769 10.9921 18.9082 11.1286C18.5432 11.2651 18.1098 11.3333 17.608 11.3333ZM17.551 8.74747C16.9769 8.74747 16.4865 8.61279 16.0797 8.34343C15.6729 8.07048 15.3612 7.70236 15.1445 7.23906C14.9278 6.77576 14.8195 6.2532 14.8195 5.67138C14.8195 5.09315 14.9259 4.57239 15.1388 4.10909C15.3555 3.64579 15.6653 3.27946 16.0683 3.0101C16.4713 2.74074 16.9541 2.60606 17.5168 2.60606C18.0946 2.60606 18.5812 2.73895 18.9766 3.00471C19.372 3.27048 19.6704 3.63502 19.8719 4.09832C20.0772 4.55802 20.1798 5.08238 20.1798 5.67138C20.1798 6.24961 20.0791 6.77217 19.8776 7.23906C19.6761 7.70236 19.3796 8.07048 18.988 8.34343C18.5964 8.61279 18.1174 8.74747 17.551 8.74747ZM17.6365 8.00943C18.0737 8.00943 18.4349 7.90887 18.72 7.70774C19.0051 7.50662 19.218 7.23008 19.3587 6.87811C19.4993 6.52256 19.5697 6.12031 19.5697 5.67138C19.5697 5.21526 19.4993 4.81302 19.3587 4.46465C19.218 4.11268 19.0051 3.83793 18.72 3.6404C18.4387 3.44287 18.0832 3.34411 17.6536 3.34411C17.2126 3.34411 16.8477 3.44646 16.5587 3.65118C16.2698 3.85589 16.055 4.13423 15.9143 4.4862C15.7775 4.83816 15.7091 5.23322 15.7091 5.67138C15.7091 6.11313 15.7794 6.51178 15.92 6.86734C16.0645 7.2193 16.2793 7.49764 16.5644 7.70236C16.8496 7.90707 17.2069 8.00943 17.6365 8.00943Z" fill="black"/>
<path d="M23.5667 8.74747C22.9661 8.74747 22.4452 8.62177 22.0042 8.37037C21.567 8.11897 21.2268 7.76521 20.9835 7.30909C20.7402 6.85297 20.6185 6.31785 20.6185 5.7037C20.6185 5.06801 20.7383 4.51852 20.9778 4.05522C21.2173 3.59192 21.5537 3.23457 21.9871 2.98316C22.4243 2.73176 22.9395 2.60606 23.5325 2.60606C24.1408 2.60606 24.6597 2.73895 25.0893 3.00471C25.5189 3.26689 25.8439 3.644 26.0644 4.13603C26.2849 4.62806 26.3857 5.21526 26.3667 5.89764H25.5113V5.61751C25.4961 4.8633 25.3231 4.29405 24.9924 3.90976C24.6654 3.52548 24.1864 3.33333 23.5553 3.33333C22.8938 3.33333 22.3863 3.53625 22.0327 3.94209C21.683 4.34792 21.5081 4.92615 21.5081 5.67677C21.5081 6.40943 21.683 6.97868 22.0327 7.38451C22.3863 7.78676 22.8862 7.98788 23.5325 7.98788C23.9735 7.98788 24.3575 7.8927 24.6844 7.70236C25.0152 7.50842 25.2756 7.23008 25.4657 6.86734L26.2469 7.15286C26.0036 7.65926 25.6444 8.05252 25.1691 8.33266C24.6977 8.6092 24.1636 8.74747 23.5667 8.74747ZM21.2116 5.89764V5.23502H25.9162V5.89764H21.2116Z" fill="black"/>
<path d="M30.0349 8.58586C29.6889 8.6541 29.3468 8.68103 29.0084 8.66667C28.6739 8.6523 28.3735 8.58406 28.1074 8.46195C27.8451 8.33984 27.6455 8.1495 27.5086 7.89091C27.3984 7.67542 27.3376 7.45814 27.3262 7.23906C27.3186 7.01639 27.3148 6.76319 27.3148 6.47946V1.15151H28.1473V6.44714C28.1473 6.69136 28.1492 6.89607 28.153 7.06128C28.1606 7.2229 28.2005 7.36655 28.2728 7.49226C28.4096 7.73288 28.6263 7.87654 28.9229 7.92323C29.2232 7.96992 29.5939 7.95915 30.0349 7.89091V8.58586ZM25.9975 3.44646V2.76768H30.0349V3.44646H25.9975Z" fill="black"/>
<path d="M32.4644 8.74747C31.8904 8.74747 31.4 8.61279 30.9932 8.34343C30.5864 8.07048 30.2747 7.70236 30.058 7.23906C29.8413 6.77576 29.7329 6.2532 29.7329 5.67138C29.7329 5.09315 29.8394 4.57239 30.0523 4.10909C30.269 3.64579 30.5788 3.27946 30.9818 3.0101C31.3848 2.74074 31.8676 2.60606 32.4302 2.60606C33.0081 2.60606 33.4947 2.73895 33.8901 3.00471C34.2854 3.27048 34.5839 3.63502 34.7854 4.09832C34.9907 4.55802 35.0933 5.08238 35.0933 5.67138C35.0933 6.24961 34.9926 6.77217 34.7911 7.23906C34.5896 7.70236 34.293 8.07048 33.9015 8.34343C33.5099 8.61279 33.0309 8.74747 32.4644 8.74747ZM32.55 8.00943C32.9872 8.00943 33.3483 7.90887 33.6335 7.70774C33.9186 7.50662 34.1315 7.23008 34.2721 6.87811C34.4128 6.52256 34.4831 6.12031 34.4831 5.67138C34.4831 5.21526 34.4128 4.81302 34.2721 4.46465C34.1315 4.11268 33.9186 3.83793 33.6335 3.6404C33.3521 3.44287 32.9967 3.34411 32.5671 3.34411C32.1261 3.34411 31.7611 3.44646 31.4722 3.65118C31.1833 3.85589 30.9685 4.13423 30.8278 4.4862C30.6909 4.83816 30.6225 5.23322 30.6225 5.67138C30.6225 6.11313 30.6929 6.51178 30.8335 6.86734C30.978 7.2193 31.1928 7.49764 31.4779 7.70236C31.763 7.90707 32.1204 8.00943 32.55 8.00943ZM34.4831 8.58586V4.20606H34.3919V0.828283H35.2359V8.58586H34.4831Z" fill="black"/>
<path d="M38.4571 8.74747C37.845 8.74747 37.3223 8.61639 36.8889 8.35421C36.4555 8.09203 36.1229 7.72929 35.891 7.26599C35.6591 6.80269 35.5431 6.27116 35.5431 5.67138C35.5431 5.06083 35.661 4.5257 35.8967 4.06599C36.1324 3.60628 36.4669 3.24893 36.9003 2.99394C37.3375 2.73535 37.8564 2.60606 38.4571 2.60606C39.073 2.60606 39.5976 2.73715 40.031 2.99933C40.4682 3.25791 40.8009 3.61885 41.029 4.08215C41.2609 4.54186 41.3768 5.07161 41.3768 5.67138C41.3768 6.28193 41.2609 6.81886 41.029 7.28216C40.7971 7.74186 40.4625 8.10101 40.0253 8.3596C39.5881 8.61818 39.0654 8.74747 38.4571 8.74747ZM38.4571 7.98788C39.1414 7.98788 39.6508 7.77419 39.9854 7.3468C40.3199 6.91582 40.4872 6.35735 40.4872 5.67138C40.4872 4.96745 40.318 4.40718 39.9797 3.99057C39.6451 3.57396 39.1376 3.36566 38.4571 3.36566C37.9971 3.36566 37.6169 3.46442 37.3166 3.66195C37.0201 3.85589 36.7977 4.12705 36.6494 4.47542C36.5049 4.8202 36.4327 5.21885 36.4327 5.67138C36.4327 6.37172 36.6038 6.93378 36.9459 7.35758C37.2881 7.77778 37.7918 7.98788 38.4571 7.98788Z" fill="black"/>
<path d="M46.1323 8.58586V5.61751C46.1323 5.29428 46.1 4.99798 46.0354 4.72862C45.9707 4.45567 45.8662 4.21863 45.7217 4.01751C45.5811 3.81279 45.3967 3.65477 45.1686 3.54343C44.9443 3.4321 44.6706 3.37643 44.3474 3.37643C44.0509 3.37643 43.7886 3.42492 43.5605 3.52189C43.3362 3.61885 43.1461 3.75892 42.9902 3.94209C42.8381 4.12166 42.7222 4.34074 42.6424 4.59933C42.5625 4.85791 42.5226 5.15241 42.5226 5.48283L41.9295 5.35892C41.9295 4.76274 42.0398 4.26173 42.2603 3.85589C42.4808 3.45006 42.7849 3.14299 43.1727 2.93468C43.5605 2.72637 44.0053 2.62222 44.5071 2.62222C44.8759 2.62222 45.1971 2.67609 45.4708 2.78384C45.7483 2.89158 45.9821 3.03704 46.1722 3.2202C46.3661 3.40337 46.522 3.61347 46.6398 3.8505C46.7577 4.08395 46.8432 4.33356 46.8965 4.59933C46.9497 4.8615 46.9763 5.12368 46.9763 5.38586V8.58586H46.1323ZM41.6786 8.58586V2.76768H42.4371V4.20067H42.5226V8.58586H41.6786Z" fill="black"/>
<path d="M50.0672 8.74747C49.4665 8.74747 48.9457 8.62177 48.5047 8.37037C48.0675 8.11897 47.7272 7.76521 47.4839 7.30909C47.2406 6.85297 47.119 6.31785 47.119 5.7037C47.119 5.06801 47.2387 4.51852 47.4782 4.05522C47.7177 3.59192 48.0542 3.23457 48.4876 2.98316C48.9248 2.73176 49.4399 2.60606 50.033 2.60606C50.6412 2.60606 51.1602 2.73895 51.5898 3.00471C52.0193 3.26689 52.3444 3.644 52.5649 4.13603C52.7854 4.62806 52.8861 5.21526 52.8671 5.89764H52.0117V5.61751C51.9965 4.8633 51.8236 4.29405 51.4928 3.90976C51.1659 3.52548 50.6868 3.33333 50.0558 3.33333C49.3943 3.33333 48.8867 3.53625 48.5332 3.94209C48.1834 4.34792 48.0086 4.92615 48.0086 5.67677C48.0086 6.40943 48.1834 6.97868 48.5332 7.38451C48.8867 7.78676 49.3867 7.98788 50.033 7.98788C50.474 7.98788 50.8579 7.8927 51.1849 7.70236C51.5156 7.50842 51.776 7.23008 51.9661 6.86734L52.7474 7.15286C52.5041 7.65926 52.1448 8.05252 51.6696 8.33266C51.1982 8.6092 50.664 8.74747 50.0672 8.74747ZM47.712 5.89764V5.23502H52.4166V5.89764H47.712Z" fill="black"/>
<path d="M53.2963 8.58586V0.666667H54.1345V8.58586H53.2963Z" fill="black"/>
<path d="M55.0078 1.6633V0.774411H55.846V1.6633H55.0078ZM55.0078 8.58586V2.76768H55.846V8.58586H55.0078Z" fill="black"/>
<path d="M58.9033 8.74209C58.181 8.74209 57.5861 8.59484 57.1184 8.30034C56.6546 8.00584 56.3695 7.59641 56.2631 7.07205L57.1184 6.93737C57.2097 7.26779 57.4169 7.53176 57.74 7.72929C58.067 7.92323 58.4699 8.0202 58.949 8.0202C59.4166 8.0202 59.7853 7.92862 60.0553 7.74545C60.3252 7.5587 60.4601 7.3055 60.4601 6.98586C60.4601 6.80628 60.4164 6.66083 60.329 6.54949C60.2453 6.43457 60.0724 6.32862 59.81 6.23165C59.5477 6.13468 59.1562 6.01975 58.6353 5.88687C58.0765 5.74321 57.6393 5.59955 57.3237 5.45589C57.0082 5.31223 56.7839 5.14703 56.6508 4.96027C56.5178 4.76992 56.4513 4.53827 56.4513 4.26532C56.4513 3.9349 56.5501 3.64579 56.7478 3.39798C56.9455 3.14658 57.2192 2.95264 57.5689 2.81616C57.9187 2.67609 58.3255 2.60606 58.7893 2.60606C59.2531 2.60606 59.6675 2.67789 60.0324 2.82155C60.4012 2.96162 60.6977 3.15915 60.922 3.41414C61.1463 3.66914 61.2794 3.96543 61.3212 4.30303L60.4658 4.44849C60.4088 4.1073 60.2282 3.83793 59.9241 3.6404C59.6238 3.43928 59.2417 3.33513 58.7779 3.32795C58.3407 3.31717 57.9852 3.39618 57.7115 3.56498C57.4378 3.73019 57.3009 3.95107 57.3009 4.22761C57.3009 4.38204 57.3504 4.51493 57.4492 4.62626C57.548 4.73401 57.7267 4.83636 57.9852 4.93333C58.2475 5.0303 58.6201 5.13625 59.1029 5.25118C59.6694 5.38765 60.1142 5.53131 60.4373 5.68215C60.7605 5.833 60.9905 6.01077 61.1273 6.21549C61.2642 6.4202 61.3326 6.6734 61.3326 6.97508C61.3326 7.52458 61.1159 7.95735 60.6825 8.2734C60.2529 8.58586 59.6599 8.74209 58.9033 8.74209Z" fill="black"/>
<path d="M65 8.58586C64.654 8.6541 64.3119 8.68103 63.9735 8.66667C63.639 8.6523 63.3387 8.58406 63.0725 8.46195C62.8102 8.33984 62.6106 8.1495 62.4738 7.89091C62.3635 7.67542 62.3027 7.45814 62.2913 7.23906C62.2837 7.01639 62.2799 6.76319 62.2799 6.47946V1.15151H63.1125V6.44714C63.1125 6.69136 63.1144 6.89607 63.1182 7.06128C63.1258 7.2229 63.1657 7.36655 63.2379 7.49226C63.3748 7.73288 63.5915 7.87654 63.888 7.92323C64.1883 7.96992 64.559 7.95915 65 7.89091V8.58586ZM60.9626 3.44646V2.76768H65V3.44646H60.9626Z" fill="black"/>
</svg>
